Coordinates
version=1
nRows=41
nColumns=38
inDegrees=no

Units are S.I. units (second, meters, Newtons, ...)
If the header above contains a line with 'inDegrees', this indicates whether rotational values are in degrees (yes) or radians (no).

endheader
time	pelvis_tilt	pelvis_list	pelvis_rotation	pelvis_tx	pelvis_ty	pelvis_tz	hip_flexion_r	hip_adduction_r	hip_rotation_r	knee_angle_r	ankle_angle_r	subtalar_angle_r	mtp_angle_r	hip_flexion_l	hip_adduction_l	hip_rotation_l	knee_angle_l	ankle_angle_l	subtalar_angle_l	mtp_angle_l	lumbar_extension	lumbar_bending	lumbar_rotation	arm_flex_r	arm_add_r	arm_rot_r	elbow_flex_r	pro_sup_r	wrist_flex_r	wrist_dev_r	arm_flex_l	arm_add_l	arm_rot_l	elbow_flex_l	pro_sup_l	wrist_flex_l	wrist_dev_l
20	0.0291279	1.05002	1.54798	0.752317	-0.333017	0.833439	1.26316	-0.0231595	0.0549015	1.25498	0.0580819	0	0	1.1871	-0.10232	0.0322182	1.34635	0.053292	0	0	-0.664013	0.0153524	-0.0359981	0.650887	-0.228937	0.240521	0.46048	1.52751	0	0	0.615188	-0.462085	0.717607	0.61255	0.904714	0	0
20.01	0.0290223	1.05839	1.54678	0.752337	-0.332772	0.83573	1.25152	-0.0211047	0.0588654	1.25223	0.0554773	0	0	1.17603	-0.107767	0.0228463	1.34205	0.0498549	0	0	-0.67296	0.0138186	-0.0359626	0.651584	-0.236145	0.2675	0.469638	1.49403	0	0	0.529904	-0.329117	0.175779	0.59998	1.29623	0	0
20.02	0.0313646	1.06345	1.54656	0.751532	-0.332652	0.83794	1.24231	-0.0225514	0.058016	1.24654	0.0534838	0	0	1.16725	-0.106092	0.022673	1.33467	0.0476536	0	0	-0.676501	0.0153189	-0.0373633	0.656318	-0.236654	0.279625	0.463522	1.47947	0	0	0.532086	-0.323026	0.162796	0.594924	1.30815	0	0
20.03	0.0335147	1.06891	1.54525	0.750972	-0.332455	0.840164	1.23251	-0.0221694	0.0584812	1.24038	0.0520535	0	0	1.1578	-0.106187	0.0212407	1.32759	0.0460504	0	0	-0.680054	0.0153402	-0.0365643	0.660306	-0.238314	0.294408	0.457532	1.46067	0	0	0.536107	-0.3166	0.152568	0.587939	1.31939	0	0
20.04	0.0357738	1.07437	1.5437	0.750424	-0.332251	0.842282	1.22282	-0.0214667	0.0592107	1.23451	0.050804	0	0	1.14848	-0.106681	0.0194179	1.32099	0.0445471	0	0	-0.683387	0.0150295	-0.0340984	0.661005	-0.242255	0.309808	0.456679	1.43171	0	0	0.541556	-0.309853	0.145974	0.579787	1.32804	0	0
20.05	0.0387534	1.07293	1.54311	0.749424	-0.331432	0.844345	1.2179	-0.0229473	0.0578165	1.22554	0.0491242	0	0	1.14455	-0.104667	0.0190747	1.31117	0.0430863	0	0	-0.718752	-0.0411363	0.142943	0.452123	-0.48429	0.309031	0.763743	1.15847	0	0	0.688848	-0.183893	0.281054	0.506974	1.38102	0	0
20.06	0.0446287	1.09897	1.53714	0.748997	-0.332111	0.847803	1.18892	-0.0207303	0.0578722	1.22266	0.047502	0	0	1.1158	-0.107643	0.017056	1.3084	0.0427599	0	0	-0.75144	0.0202395	0.0639681	0.537248	-0.453625	0.391037	0.768106	1.18332	0	0	0.622549	-0.246736	0.218143	0.564831	1.33736	0	0
20.07	0.0479328	1.1045	1.53473	0.748444	-0.332136	0.849657	1.18007	-0.0202626	0.0576449	1.21778	0.0456482	0	0	1.1073	-0.10775	0.0168916	1.30296	0.041158	0	0	-0.750678	0.0244873	0.0532781	0.552251	-0.44458	0.413723	0.751109	1.17624	0	0	0.61524	-0.251576	0.206991	0.564565	1.33324	0	0
20.08	0.0502516	1.10962	1.53388	0.747839	-0.332159	0.851545	1.17146	-0.0208228	0.0572485	1.21256	0.0436265	0	0	1.09904	-0.106513	0.0172849	1.29693	0.0395412	0	0	-0.749415	0.0286148	0.0434389	0.564242	-0.435847	0.430458	0.736075	1.17021	0	0	0.608926	-0.256363	0.200021	0.563911	1.32708	0	0
20.09	0.0525861	1.11405	1.53275	0.74727	-0.332174	0.853451	1.16331	-0.0210295	0.0567722	1.2068	0.0419599	0	0	1.09135	-0.105438	0.0177232	1.29054	0.0379814	0	0	-0.747604	0.0322172	0.0365629	0.572174	-0.429273	0.44225	0.724628	1.16693	0	0	0.604307	-0.259922	0.196513	0.562046	1.32208	0	0
20.1	0.0546895	1.11754	1.53225	0.746666	-0.332063	0.855222	1.15611	-0.021793	0.0560659	1.2014	0.040735	0	0	1.0846	-0.104037	0.018066	1.28429	0.0364662	0	0	-0.74424	0.0357539	0.0306488	0.577132	-0.423963	0.452572	0.71503	1.16437	0	0	0.599524	-0.263017	0.194552	0.559937	1.31784	0	0
20.11	0.056	1.11954	1.53149	0.746313	-0.331777	0.856793	1.15053	-0.0213528	0.0565528	1.19624	0.0397201	0	0	1.07916	-0.103974	0.0170321	1.27835	0.0351252	0	0	-0.739004	0.0377074	0.0267136	0.579107	-0.419613	0.460739	0.707362	1.16278	0	0	0.594198	-0.265698	0.193352	0.558622	1.31458	0	0
20.12	0.0577168	1.1217	1.53019	0.74597	-0.331462	0.858508	1.14447	-0.0207313	0.05697	1.19042	0.038511	0	0	1.07336	-0.103901	0.0164118	1.27204	0.0336953	0	0	-0.733933	0.0392183	0.0244874	0.579222	-0.416649	0.467088	0.701608	1.16202	0	0	0.589431	-0.267466	0.192833	0.557507	1.31197	0	0
20.13	0.059257	1.12319	1.53012	0.745466	-0.331085	0.860239	1.13898	-0.0215339	0.0565602	1.1848	0.0374378	0	0	1.06817	-0.102151	0.0171792	1.26522	0.0320965	0	0	-0.7282	0.0406787	0.0235057	0.575916	-0.415576	0.469462	0.699156	1.16173	0	0	0.585536	-0.2679	0.193364	0.556059	1.30997	0	0
20.14	0.0601953	1.1108	1.53068	0.744838	-0.329944	0.861023	1.14626	-0.0225119	0.0555635	1.17692	0.0354353	0	0	1.07612	-0.0997853	0.0189778	1.25641	0.0299725	0	0	-0.711207	-0.0147723	0.106587	0.485115	-0.465411	0.393854	0.728359	1.11587	0	0	0.647396	-0.210577	0.255059	0.522231	1.3346	0	0
20.15	0.0648095	1.13561	1.52389	0.745008	-0.330213	0.864492	1.1179	-0.0186284	0.0569793	1.17324	0.0349067	0	0	1.04738	-0.104523	0.0147563	1.2528	0.0297379	0	0	-0.723574	0.0410942	0.0252615	0.573072	-0.419574	0.496036	0.695041	1.13583	0	0	0.581185	-0.274155	0.221827	0.551548	1.26407	0	0
20.16	0.0685092	1.13988	1.51966	0.744755	-0.329896	0.866454	1.10956	-0.0170559	0.0563311	1.16715	0.0336819	0	0	1.0394	-0.105608	0.015019	1.24692	0.0288041	0	0	-0.718995	0.0417372	0.0242337	0.569989	-0.418244	0.49991	0.693602	1.12965	0	0	0.573409	-0.274798	0.210858	0.553786	1.27331	0	0
20.17	0.0727738	1.14812	1.51588	0.7443	-0.329373	0.868997	1.09595	-0.0167737	0.054866	1.15982	0.0308667	0	0	1.02629	-0.105708	0.0152037	1.23961	0.0274368	0	0	-0.718231	0.0432781	0.0216528	0.571601	-0.418027	0.51637	0.689526	1.11542	0	0	0.565582	-0.275439	0.197715	0.556214	1.28483	0	0
20.18	0.0801167	1.16129	1.50769	0.743922	-0.328801	0.87207	1.07665	-0.0148639	0.0527784	1.1519	0.0258499	0	0	1.00768	-0.10851	0.0136361	1.23297	0.0267338	0	0	-0.718314	0.0474214	0.00609879	0.612884	-0.423536	0.651326	0.663912	0.977157	0	0	0.546081	-0.283488	0.167493	0.563692	1.29889	0	0
20.19	0.0837603	1.16892	1.50335	0.743755	-0.328172	0.874663	1.06364	-0.0137729	0.0517812	1.14459	0.0236322	0	0	0.994751	-0.110054	0.0121471	1.22524	0.0250429	0	0	-0.715821	0.0476512	0.00568845	0.6148	-0.424013	0.674097	0.658669	0.958512	0	0	0.540883	-0.285371	0.168696	0.562527	1.29444	0	0
20.2	0.0858649	1.17483	1.50027	0.743694	-0.327385	0.877094	1.05244	-0.0125668	0.0518041	1.13754	0.0218017	0	0	0.983205	-0.111609	0.0099903	1.21708	0.0233636	0	0	-0.711327	0.0469139	0.00576266	0.612699	-0.424205	0.689293	0.656037	0.950483	0	0	0.535676	-0.287023	0.170548	0.560829	1.291	0	0
20.21	0.0876326	1.18038	1.49788	0.743555	-0.326509	0.879605	1.04116	-0.011903	0.0517433	1.12987	0.0203384	0	0	0.971648	-0.112456	0.00821477	1.20824	0.0215518	0	0	-0.706671	0.0462406	0.00603094	0.608507	-0.424103	0.698514	0.654465	0.947892	0	0	0.531159	-0.288259	0.173456	0.55828	1.28783	0	0
20.22	0.0894092	1.18557	1.49654	0.743203	-0.32555	0.882181	1.02985	-0.0123795	0.0512388	1.12186	0.0191107	0	0	0.960331	-0.111651	0.00792207	1.19899	0.0198349	0	0	-0.7021	0.0462138	0.00681419	0.601691	-0.424155	0.699436	0.654378	0.950653	0	0	0.527554	-0.288563	0.177616	0.555396	1.28507	0	0
20.23	0.086234	1.17425	1.50041	0.742875	-0.323584	0.883951	1.03342	-0.013855	0.0505953	1.11012	0.014271	0	0	0.964035	-0.109152	0.00810622	1.18555	0.0159948	0	0	-0.690613	-0.0209217	0.139461	0.443899	-0.504041	0.506166	0.735563	0.924956	0	0	0.6364	-0.203967	0.30282	0.48357	1.32755	0	0
20.24	0.0911246	1.18308	1.49498	0.742694	-0.322582	0.887039	1.01765	-0.01282	0.049228	1.10083	0.011524	0	0	0.948409	-0.111127	0.00588033	1.17607	0.0135985	0	0	-0.689491	-0.0187302	0.138428	0.445666	-0.504206	0.52448	0.731903	0.910477	0	0	0.631397	-0.207595	0.308545	0.481859	1.31929	0	0
20.25	0.0953556	1.19113	1.48978	0.742662	-0.321494	0.890114	1.0026	-0.0113492	0.0483715	1.09144	0.008502	0	0	0.933213	-0.113857	0.00223983	1.16598	0.011035	0	0	-0.68747	-0.0173757	0.137562	0.446857	-0.503923	0.542492	0.728296	0.897154	0	0	0.62658	-0.211289	0.314674	0.479665	1.31177	0	0
20.26	0.0993869	1.19978	1.48624	0.742322	-0.320428	0.893379	0.986557	-0.0118936	0.046128	1.08175	0.00543799	0	0	0.917173	-0.114358	0.000260642	1.15475	0.00854281	0	0	-0.686195	-0.0150797	0.135346	0.448494	-0.503897	0.560856	0.724695	0.884026	0	0	0.622298	-0.214532	0.320926	0.476725	1.30437	0	0
20.27	0.103117	1.20769	1.48247	0.742124	-0.31928	0.896587	0.971188	-0.0118619	0.0446235	1.07196	0.0024242	0	0	0.901624	-0.115538	-0.00242671	1.14326	0.00621038	0	0	-0.683836	-0.0134119	0.133451	0.449635	-0.503293	0.57868	0.720731	0.871061	0	0	0.617779	-0.217692	0.32688	0.473414	1.29688	0	0
20.28	0.106803	1.21513	1.47863	0.741956	-0.318078	0.89978	0.956159	-0.0118125	0.0431688	1.06191	-0.000578275	0	0	0.886357	-0.116894	-0.00540675	1.13154	0.00351232	0	0	-0.680806	-0.0118606	0.131616	0.450384	-0.502403	0.595857	0.71666	0.858413	0	0	0.612626	-0.220997	0.332454	0.470748	1.28854	0	0
20.29	0.110222	1.22249	1.47572	0.741606	-0.316939	0.903029	0.941133	-0.01301	0.040474	1.05161	-0.00406843	0	0	0.871103	-0.116951	-0.00733094	1.11935	0.000471273	0	0	-0.677693	-0.00979943	0.129013	0.451191	-0.501577	0.612758	0.71269	0.846434	0	0	0.607444	-0.22402	0.337919	0.467942	1.28026	0	0
20.3	0.113516	1.22838	1.47089	0.741768	-0.315686	0.90604	0.92787	-0.0113884	0.04004	1.04159	-0.00761664	0	0	0.857129	-0.11999	-0.0120663	1.10763	-0.00256201	0	0	-0.67237	-0.00947296	0.128119	0.450809	-0.499642	0.628711	0.70813	0.834988	0	0	0.601467	-0.227554	0.34366	0.465435	1.27203	0	0
20.31	0.116629	1.23499	1.46679	0.741813	-0.314395	0.909157	0.913607	-0.0104479	0.0394539	1.03117	-0.0108894	0	0	0.842173	-0.122319	-0.01681	1.09529	-0.00570475	0	0	-0.667709	-0.00881163	0.126596	0.450522	-0.497756	0.644678	0.703599	0.823287	0	0	0.595451	-0.2311	0.349756	0.462981	1.26443	0	0
20.32	0.118988	1.24232	1.46437	0.741651	-0.313079	0.912367	0.89847	-0.0108716	0.0381688	1.02076	-0.0143272	0	0	0.826339	-0.123023	-0.0206219	1.08236	-0.00878246	0	0	-0.663565	-0.00763248	0.12417	0.450009	-0.495984	0.660179	0.699232	0.811299	0	0	0.589577	-0.234151	0.35597	0.460007	1.25698	0	0
20.33	0.120626	1.24954	1.46324	0.741388	-0.31179	0.915636	0.88327	-0.012155	0.0365425	1.00994	-0.0181276	0	0	0.810506	-0.12261	-0.0235044	1.06862	-0.0122513	0	0	-0.659425	-0.00638811	0.121186	0.449224	-0.494281	0.674909	0.695376	0.799284	0	0	0.583742	-0.237035	0.362112	0.457273	1.24934	0	0
20.34	0.122111	1.25669	1.46255	0.741039	-0.31052	0.918967	0.868083	-0.0139421	0.034303	0.999015	-0.0219724	0	0	0.794598	-0.121494	-0.0255999	1.05431	-0.0159734	0	0	-0.65539	-0.00511471	0.117961	0.448471	-0.492798	0.689289	0.691809	0.788345	0	0	0.578133	-0.239914	0.368895	0.454659	1.24129	0	0
20.35	0.124293	1.2636	1.46073	0.74078	-0.309214	0.922246	0.85306	-0.0148789	0.0325824	0.988024	-0.0258057	0	0	0.778732	-0.121109	-0.0280717	1.04007	-0.0196934	0	0	-0.650959	-0.00400516	0.115452	0.447609	-0.491346	0.703618	0.687748	0.779117	0	0	0.572422	-0.242873	0.376487	0.452229	1.23296	0	0
20.36	0.126417	1.27025	1.45892	0.740564	-0.307837	0.925487	0.83817	-0.0156386	0.0312059	0.976957	-0.0297374	0	0	0.762717	-0.12075	-0.0306068	1.02527	-0.0233505	0	0	-0.646086	-0.00311971	0.113178	0.446195	-0.489847	0.71738	0.683676	0.769924	0	0	0.56664	-0.245886	0.384703	0.449863	1.22409	0	0
20.37	0.128922	1.27673	1.45673	0.740365	-0.306379	0.92879	0.82313	-0.0164293	0.0292546	0.965442	-0.0338175	0	0	0.746345	-0.120513	-0.0333759	1.00948	-0.0267955	0	0	-0.641036	-0.00207036	0.111147	0.444419	-0.488425	0.730675	0.679665	0.760719	0	0	0.561307	-0.248458	0.393705	0.446455	1.21478	0	0
20.38	0.132137	1.2831	1.45384	0.740215	-0.304881	0.932157	0.807988	-0.0170801	0.0267154	0.953561	-0.0382407	0	0	0.729731	-0.120589	-0.0365221	0.992917	-0.0305311	0	0	-0.635914	-0.000811881	0.10935	0.442433	-0.48691	0.743367	0.675579	0.751591	0	0	0.55631	-0.250697	0.403403	0.44239	1.2051	0	0
20.39	0.134579	1.28895	1.45175	0.740095	-0.303374	0.935488	0.793352	-0.0176087	0.0248538	0.941533	-0.0426694	0	0	0.713478	-0.120455	-0.0398202	0.975907	-0.034544	0	0	-0.630168	0.000189087	0.107561	0.439893	-0.485222	0.755099	0.67152	0.743289	0	0	0.551121	-0.252868	0.413476	0.43869	1.19536	0	0
20.4	0.135347	1.29406	1.4513	0.739949	-0.301885	0.938703	0.779511	-0.0180945	0.0242592	0.92937	-0.0465633	0	0	0.697946	-0.119723	-0.0427903	0.958531	-0.0388775	0	0	-0.623374	0.000724863	0.105634	0.436707	-0.483495	0.766024	0.667655	0.736763	0	0	0.545929	-0.254928	0.424295	0.434776	1.18503	0	0
